<?xml version="1.0" encoding="UTF-8"?>
<!DOCTYPE svg PUBLIC "-//W3C//DTD SVG 1.1//EN" "http://www.w3.org/Graphics/SVG/1.1/DTD/svg11.dtd">
<svg xmlns="http://www.w3.org/2000/svg" version="1.1" width="222px" height="63px" style="shape-rendering:geometricPrecision; text-rendering:geometricPrecision; image-rendering:optimizeQuality; fill-rule:evenodd; clip-rule:evenodd" xmlns:xlink="http://www.w3.org/1999/xlink">
<g><path style="opacity:0.011" fill="#f9f9f9" d="M 221.5,30.5 C 221.5,34.8333 221.5,39.1667 221.5,43.5C 218.436,51.7098 212.436,55.8764 203.5,56C 201.779,57.9438 200.446,60.1105 199.5,62.5C 195.833,62.5 192.167,62.5 188.5,62.5C 186.662,59.8275 185.495,56.8275 185,53.5C 181.611,54.9295 178.111,56.0961 174.5,57C 173.777,59.0183 172.777,60.8516 171.5,62.5C 167.833,62.5 164.167,62.5 160.5,62.5C 159.106,60.0486 158.272,57.3819 158,54.5C 154.022,52.3415 150.522,49.6749 147.5,46.5C 145.055,48.5683 142.722,50.7349 140.5,53C 134.597,53.4702 128.763,54.3035 123,55.5C 119.204,55.8615 115.871,54.8615 113,52.5C 108.054,56.3858 103.054,56.3858 98,52.5C 91.4239,55.2632 84.5906,56.0965 77.5,55C 76.0692,54.5348 74.9025,53.7014 74,52.5C 69.104,54.4523 64.9373,53.4523 61.5,49.5C 57.5136,53.7513 52.847,54.5846 47.5,52C 46.8742,51.2496 46.3742,50.4162 46,49.5C 39.0597,56.5397 32.893,55.873 27.5,47.5C 24.7496,52.8752 20.4162,55.0419 14.5,54C 12,52.8333 10.1667,51 9,48.5C 6.02942,38.9509 3.52942,29.2842 1.5,19.5C 2.5106,12.3343 6.5106,9.83432 13.5,12C 15.0175,13.6851 16.6841,15.1851 18.5,16.5C 24.7041,8.57724 31.0375,8.57724 37.5,16.5C 38.6933,14.4733 40.36,12.9733 42.5,12C 46,11.5 49.5,11 53,10.5C 57.934,10.7679 61.1007,13.2679 62.5,18C 66.5437,18.2728 70.0437,19.7728 73,22.5C 79.2946,18.1096 85.9613,17.4429 93,20.5C 95.4674,17.7686 98.4674,16.1019 102,15.5C 106.345,16.339 110.345,18.0057 114,20.5C 122.207,16.8957 129.374,18.229 135.5,24.5C 137.183,19.932 139.516,15.7653 142.5,12C 146.99,9.76423 151.156,10.2642 155,13.5C 156.599,16.8013 158.099,20.1346 159.5,23.5C 162.204,20.6489 165.537,19.1489 169.5,19C 173.833,18.3333 178.167,18.3333 182.5,19C 184.587,19.7922 186.421,20.9588 188,22.5C 190.758,20.357 193.924,19.1903 197.5,19C 208.859,16.2672 216.859,20.1005 221.5,30.5 Z"/></g>
<g><path style="opacity:0.571" fill="#6d6d6d" d="M 52.5,12.5 C 53.1667,16.5 53.8333,20.5 54.5,24.5C 54.2172,25.2891 53.7172,25.9558 53,26.5C 52.5008,21.8452 52.3342,17.1785 52.5,12.5 Z"/></g>
<g><path style="opacity:0.031" fill="#eeeeee" d="M 6.5,15.5 C 7.45115,16.9187 7.78448,18.5853 7.5,20.5C 8.67729,27.8793 10.1773,35.2126 12,42.5C 14.6124,50.6088 18.2791,51.2755 23,44.5C 23.413,41.7679 24.0797,39.1013 25,36.5C 26.4936,35.2528 27.9936,35.2528 29.5,36.5C 30.8536,39.7685 32.0203,43.1019 33,46.5C 35.2825,50.0406 37.9491,50.3739 41,47.5C 42.3847,42.1778 44.3847,37.1778 47,32.5C 48.5829,36.8602 49.7495,41.1936 50.5,45.5C 51.5,45.5 52.5,45.5 53.5,45.5C 53.3339,39.8236 53.5006,34.1569 54,28.5C 55.0183,25.3171 57.185,23.9838 60.5,24.5C 63.815,23.9838 65.9817,25.3171 67,28.5C 67.1701,34.1958 67.6701,39.8624 68.5,45.5C 69.6636,39.5276 69.8303,33.5276 69,27.5C 66.939,23.0186 63.439,21.3519 58.5,22.5C 63.804,20.6356 68.6373,21.6356 73,25.5C 74.0113,24.6634 75.1779,24.33 76.5,24.5C 74.6815,25.9362 74.3482,27.6029 75.5,29.5C 76.941,28.1349 78.2744,26.6349 79.5,25C 82.1667,24.3333 84.8333,24.3333 87.5,25C 89.229,26.7889 89.8957,28.9556 89.5,31.5C 84.9592,31.0522 80.6259,31.7189 76.5,33.5C 72.541,40.3092 74.3743,44.6425 82,46.5C 85.4821,46.0945 88.1488,44.4278 90,41.5C 90.2189,42.938 90.7189,44.2713 91.5,45.5C 92.6636,39.5276 92.8303,33.5276 92,27.5C 90.5639,24.5581 88.3972,22.5581 85.5,21.5C 88.5455,21.3418 91.3788,22.0085 94,23.5C 95.4119,21.548 97.2453,20.2147 99.5,19.5C 99.5,20.5 99.5,21.5 99.5,22.5C 94.1667,23.1667 94.1667,23.8333 99.5,24.5C 99.3338,30.5092 99.5005,36.5092 100,42.5C 102.227,45.4579 105.06,46.1246 108.5,44.5C 106.659,43.7696 104.825,43.1029 103,42.5C 102.501,36.5092 102.334,30.5092 102.5,24.5C 105.388,25.0102 107.721,24.3435 109.5,22.5C 111.304,22.4241 113.304,22.7575 115.5,23.5C 113.358,25.8906 113.025,28.5572 114.5,31.5C 117.824,33.7523 121.491,35.2523 125.5,36C 128.823,40.8212 127.49,43.3212 121.5,43.5C 117.643,43.9714 115.643,42.3047 115.5,38.5C 114.5,38.5 113.5,38.5 112.5,38.5C 112.469,42.5971 114.469,45.0971 118.5,46C 126.718,47.1154 130.218,43.6154 129,35.5C 125.326,33.6218 121.493,32.1218 117.5,31C 116.167,29 116.167,27 117.5,25C 119.833,24.3333 122.167,24.3333 124.5,25C 126.037,26.1096 126.703,27.6096 126.5,29.5C 127.5,29.5 128.5,29.5 129.5,29.5C 129.358,25.3668 127.358,22.7001 123.5,21.5C 129.91,21.7369 133.744,25.0703 135,31.5C 137.71,26.7148 140.044,21.7148 142,16.5C 142.671,15.7476 143.504,15.4142 144.5,15.5C 140.935,25.3602 137.268,35.1935 133.5,45C 134.448,45.4828 135.448,45.6495 136.5,45.5C 137.199,42.4271 138.199,39.4271 139.5,36.5C 144.167,35.1667 148.833,35.1667 153.5,36.5C 155.105,39.3138 156.105,42.3138 156.5,45.5C 157.552,45.6495 158.552,45.4828 159.5,45C 156.023,35.8813 152.69,26.7146 149.5,17.5C 150.496,17.4142 151.329,17.7476 152,18.5C 153.718,24.6734 156.384,30.34 160,35.5C 161.213,33.0748 162.379,30.7415 163.5,28.5C 163.5,37.5 163.5,46.5 163.5,55.5C 164.5,55.5 165.5,55.5 166.5,55.5C 166.334,50.8215 166.501,46.1548 167,41.5C 171.27,47.0843 176.437,47.9176 182.5,44C 189.102,34.4562 187.435,26.9562 177.5,21.5C 180.862,21.0695 183.695,22.0695 186,24.5C 186.85,23.5761 187.85,23.5761 189,24.5C 190.011,23.9444 190.844,23.2778 191.5,22.5C 190.856,33.8842 191.523,44.8842 193.5,55.5C 194.167,51.5 194.833,47.5 195.5,43.5C 202.604,47.933 208.437,46.5997 213,39.5C 215.878,29.5718 212.378,23.5718 202.5,21.5C 214.656,21.5121 220.156,27.8454 219,40.5C 216.669,49.4935 210.836,53.9935 201.5,54C 199.595,55.8153 197.928,57.8153 196.5,60C 191.102,61.2747 188.269,59.108 188,53.5C 187,52.5 186,51.5 185,50.5C 181.494,52.668 177.661,53.8347 173.5,54C 167.767,63.0856 163.101,62.5856 159.5,52.5C 156.178,50.6769 153.511,48.1769 151.5,45C 150.271,44.2189 148.938,43.7189 147.5,43.5C 144.425,45.0662 141.758,47.2329 139.5,50C 134.137,50.539 128.637,51.7057 123,53.5C 119.927,53.4771 117.26,52.4771 115,50.5C 112.21,50.8443 109.21,51.511 106,52.5C 103.221,51.7761 100.554,50.7761 98,49.5C 93.7814,51.6062 88.9481,52.9396 83.5,53.5C 80.6127,53.373 78.1127,52.373 76,50.5C 69.9755,52.4225 65.9755,50.0891 64,43.5C 63.502,40.5184 63.3354,37.5184 63.5,34.5C 62.1779,34.33 61.0113,34.6634 60,35.5C 59.957,40.8529 58.457,45.6862 55.5,50C 53.8333,50.6667 52.1667,50.6667 50.5,50C 48.8767,47.9205 47.3767,45.7538 46,43.5C 44.1785,49.3536 40.3452,51.8536 34.5,51C 31.5316,47.9381 29.1982,44.4381 27.5,40.5C 25.6827,43.9644 23.6827,47.2978 21.5,50.5C 16.6288,52.6652 13.1288,51.3318 11,46.5C 9,39.1667 7,31.8333 5,24.5C 4.07261,21.1368 4.57261,18.1368 6.5,15.5 Z"/></g>
<g><path style="opacity:0.056" fill="#e2e2e2" d="M 50.5,12.5 C 50.5,23.5 50.5,34.5 50.5,45.5C 49.7495,41.1936 48.5829,36.8602 47,32.5C 44.3847,37.1778 42.3847,42.1778 41,47.5C 37.9491,50.3739 35.2825,50.0406 33,46.5C 32.0203,43.1019 30.8536,39.7685 29.5,36.5C 27.9936,35.2528 26.4936,35.2528 25,36.5C 24.0797,39.1013 23.413,41.7679 23,44.5C 18.2791,51.2755 14.6124,50.6088 12,42.5C 10.1773,35.2126 8.67729,27.8793 7.5,20.5C 10.5949,28.1829 13.0949,36.1829 15,44.5C 16.0113,45.3366 17.1779,45.67 18.5,45.5C 20.3574,36.2611 23.024,27.2611 26.5,18.5C 29.634,27.3711 32.3007,36.3711 34.5,45.5C 36.1238,45.6399 37.2904,44.9733 38,43.5C 40.7025,33.6701 43.5358,24.0035 46.5,14.5C 46.3505,15.552 46.5172,16.552 47,17.5C 48.6257,16.0445 49.7924,14.3779 50.5,12.5 Z"/></g>
<g><path style="opacity:0.996" fill="#1e1e1e" d="M 109.5,22.5 C 107.721,24.3435 105.388,25.0102 102.5,24.5C 102.334,30.5092 102.501,36.5092 103,42.5C 104.825,43.1029 106.659,43.7696 108.5,44.5C 105.06,46.1246 102.227,45.4579 100,42.5C 99.5005,36.5092 99.3338,30.5092 99.5,24.5C 94.1667,23.8333 94.1667,23.1667 99.5,22.5C 99.5,21.5 99.5,20.5 99.5,19.5C 99.8212,17.9519 100.821,17.2852 102.5,17.5C 102.5,19.1667 102.5,20.8333 102.5,22.5C 104.833,22.5 107.167,22.5 109.5,22.5 Z"/></g>
<g><path style="opacity:0.995" fill="#171717" d="M 85.5,21.5 C 88.3972,22.5581 90.5639,24.5581 92,27.5C 92.8303,33.5276 92.6636,39.5276 91.5,45.5C 90.7189,44.2713 90.2189,42.938 90,41.5C 88.1488,44.4278 85.4821,46.0945 82,46.5C 74.3743,44.6425 72.541,40.3092 76.5,33.5C 80.6259,31.7189 84.9592,31.0522 89.5,31.5C 89.8957,28.9556 89.229,26.7889 87.5,25C 84.8333,24.3333 82.1667,24.3333 79.5,25C 78.2744,26.6349 76.941,28.1349 75.5,29.5C 74.3482,27.6029 74.6815,25.9362 76.5,24.5C 79.1209,22.5152 82.1209,21.5152 85.5,21.5 Z"/></g>
<g><path style="opacity:0.998" fill="#1f1f1f" d="M 123.5,21.5 C 127.358,22.7001 129.358,25.3668 129.5,29.5C 128.5,29.5 127.5,29.5 126.5,29.5C 126.703,27.6096 126.037,26.1096 124.5,25C 122.167,24.3333 119.833,24.3333 117.5,25C 116.167,27 116.167,29 117.5,31C 121.493,32.1218 125.326,33.6218 129,35.5C 130.218,43.6154 126.718,47.1154 118.5,46C 114.469,45.0971 112.469,42.5971 112.5,38.5C 113.5,38.5 114.5,38.5 115.5,38.5C 115.643,42.3047 117.643,43.9714 121.5,43.5C 127.49,43.3212 128.823,40.8212 125.5,36C 121.491,35.2523 117.824,33.7523 114.5,31.5C 113.025,28.5572 113.358,25.8906 115.5,23.5C 117.913,21.9493 120.579,21.2826 123.5,21.5 Z"/></g>
<g><path style="opacity:0.998" fill="#202020" d="M 177.5,21.5 C 187.435,26.9562 189.102,34.4562 182.5,44C 176.437,47.9176 171.27,47.0843 167,41.5C 166.501,46.1548 166.334,50.8215 166.5,55.5C 165.5,55.5 164.5,55.5 163.5,55.5C 163.5,46.5 163.5,37.5 163.5,28.5C 163.5,26.5 163.5,24.5 163.5,22.5C 164.5,22.5 165.5,22.5 166.5,22.5C 166.343,23.8734 166.51,25.2068 167,26.5C 169.577,23.0236 173.077,21.357 177.5,21.5 Z"/></g>
<g><path style="opacity:0.99" fill="#181818" d="M 202.5,21.5 C 212.378,23.5718 215.878,29.5718 213,39.5C 208.437,46.5997 202.604,47.933 195.5,43.5C 195.217,42.7109 194.717,42.0442 194,41.5C 193.501,46.1548 193.334,50.8215 193.5,55.5C 191.523,44.8842 190.856,33.8842 191.5,22.5C 193.045,23.2297 193.878,24.563 194,26.5C 196.313,23.9277 199.146,22.261 202.5,21.5 Z"/></g>
<g><path style="opacity:0.937" fill="#181818" d="M 50.5,12.5 C 51.1667,12.5 51.8333,12.5 52.5,12.5C 52.3342,17.1785 52.5008,21.8452 53,26.5C 53.7172,25.9558 54.2172,25.2891 54.5,24.5C 55.6049,23.3995 56.9382,22.7329 58.5,22.5C 63.439,21.3519 66.939,23.0186 69,27.5C 69.8303,33.5276 69.6636,39.5276 68.5,45.5C 67.6701,39.8624 67.1701,34.1958 67,28.5C 65.9817,25.3171 63.815,23.9838 60.5,24.5C 57.185,23.9838 55.0183,25.3171 54,28.5C 53.5006,34.1569 53.3339,39.8236 53.5,45.5C 52.5,45.5 51.5,45.5 50.5,45.5C 50.5,34.5 50.5,23.5 50.5,12.5 Z"/></g>
<g><path style="opacity:0.992" fill="#151515" d="M 149.5,17.5 C 152.69,26.7146 156.023,35.8813 159.5,45C 158.552,45.4828 157.552,45.6495 156.5,45.5C 156.105,42.3138 155.105,39.3138 153.5,36.5C 148.833,35.1667 144.167,35.1667 139.5,36.5C 138.199,39.4271 137.199,42.4271 136.5,45.5C 135.448,45.6495 134.448,45.4828 133.5,45C 137.268,35.1935 140.935,25.3602 144.5,15.5C 145.287,13.8958 146.62,13.2291 148.5,13.5C 148.433,14.9587 148.766,16.2921 149.5,17.5 Z"/></g>
<g><path style="opacity:0.077" fill="#dedede" d="M 145.5,17.5 C 146.497,17.4701 147.164,17.9701 147.5,19C 148.872,23.6157 150.538,28.1157 152.5,32.5C 148.541,33.6599 144.541,33.8265 140.5,33C 142.668,27.9968 144.334,22.8302 145.5,17.5 Z"/></g>
<g><path style="opacity:0.031" fill="#f1f1f1" d="M 171.5,24.5 C 181.655,23.8294 185.488,28.496 183,38.5C 180.565,43.2238 176.731,44.7238 171.5,43C 167.079,39.9749 165.579,35.8082 167,30.5C 167.804,27.8541 169.304,25.8541 171.5,24.5 Z"/></g>
<g><path style="opacity:0.032" fill="#f1f1f1" d="M 198.5,24.5 C 206.516,22.8277 210.85,25.9944 211.5,34C 210.848,42.1672 206.515,45.1672 198.5,43C 194.695,38.9089 193.528,34.0755 195,28.5C 196.376,27.2949 197.542,25.9616 198.5,24.5 Z"/></g>
<g><path style="opacity:0.059" fill="#e8e8e8" d="M 79.5,33.5 C 82.8333,33.5 86.1667,33.5 89.5,33.5C 89.8078,43.3734 85.6411,46.0401 77,41.5C 76.0182,38.2253 76.8515,35.5586 79.5,33.5 Z"/></g>
<g><path style="opacity:0.996" fill="#191919" d="M 46.5,14.5 C 43.5358,24.0035 40.7025,33.6701 38,43.5C 37.2904,44.9733 36.1238,45.6399 34.5,45.5C 32.3007,36.3711 29.634,27.3711 26.5,18.5C 23.024,27.2611 20.3574,36.2611 18.5,45.5C 17.1779,45.67 16.0113,45.3366 15,44.5C 13.0949,36.1829 10.5949,28.1829 7.5,20.5C 7.78448,18.5853 7.45115,16.9187 6.5,15.5C 6.82124,13.9519 7.82124,13.2852 9.5,13.5C 11.1858,23.1164 13.6858,32.4497 17,41.5C 19.5044,32.1476 22.0044,22.8142 24.5,13.5C 25.8333,13.5 27.1667,13.5 28.5,13.5C 30.6879,22.9002 33.1879,32.2336 36,41.5C 38.8161,32.2347 41.3161,22.9013 43.5,13.5C 44.791,13.2627 45.791,13.596 46.5,14.5 Z"/></g>
<g><path style="opacity:0.446" fill="#8f8f8f" d="M 195.5,43.5 C 194.833,47.5 194.167,51.5 193.5,55.5C 193.334,50.8215 193.501,46.1548 194,41.5C 194.717,42.0442 195.217,42.7109 195.5,43.5 Z"/></g>
</svg>
